<?xml version="1.0" encoding="UTF-8" standalone="no"?>
<!-- Created with Inkscape (http://www.inkscape.org/) -->

<svg
   width="32"
   height="32"
   viewBox="0 0 32 32"
   version="1.1"
   id="svg1"
   xmlns="http://www.w3.org/2000/svg"
   xmlns:svg="http://www.w3.org/2000/svg">
  <defs
     id="defs1" />
  <g
     id="layer1"
     style="display:none">
    <rect
       style="display:inline;fill:#b29ed3;fill-opacity:1"
       id="rect19"
       width="15.995238"
       height="15.99701"
       x="16.003906"
       y="0.0051239999" />
    <rect
       style="display:inline;fill:#b29ed3;fill-opacity:1"
       id="rect19-3"
       width="15.995238"
       height="15.99701"
       x="0"
       y="16.032745" />
    <rect
       style="display:inline;fill:#800080;fill-opacity:1"
       id="rect22"
       width="8"
       height="16.015625"
       x="8.0039062"
       y="8.015625" />
    <path
       style="display:inline;fill:#800080;fill-opacity:1"
       id="path22"
       d="M 24.007812,16.023437 A 8.0019531,8.0078125 0 0 1 16.092282,24.030783 8.0019531,8.0078125 0 0 1 8.005773,16.1964 8.0019531,8.0078125 0 0 1 15.746631,8.0198281 8.0019531,8.0078125 0 0 1 24.000346,15.677594" />
  </g>
  <path
     style="display:none;fill:#b29ed3;fill-opacity:1"
     id="path20"
     d="M 32,16.002562 A 16,15.997438 0 0 1 16.172803,31.999067 16,15.997438 0 0 1 0.00373263,16.348093 16,15.997438 0 0 1 15.48167,0.0135198 16,15.997438 0 0 1 31.985071,15.31166" />
  <path
     style="display:none;fill:#1a1a1a;fill-opacity:0.545616"
     d="m 0,32 h 16.003906 c 0,0 0.822471,-0.02116 0.877108,-0.02427 0.05464,-0.0031 0.479417,-0.03366 0.479417,-0.03366 l 0.498359,-0.05039 0.508718,-0.06778 0.567195,-0.0953 0.648524,-0.134932 0.564895,-0.14065 0.791905,-0.234611 0.559846,-0.193226 0.709984,-0.279213 0.641799,-0.286994 0.854382,-0.436641 0.619963,-0.358955 0.522348,-0.332283 0.809196,-0.573938 0.767971,-0.619464 0.75705,-0.693617 0.727424,-0.759026 0.563403,-0.663392 0.637403,-0.849577 0.532603,-0.812769 0.666142,-1.199892 0.574453,-1.286963 0.485697,-1.423969 0.238833,-0.928826 0.212305,-1.129729 0.139408,-1.260235 0.03891,-1.127565 h -7.991332 l -0.0147,0.506445 -0.04661,0.504241 -0.09228,0.572016 -0.112244,0.4855 -0.190028,0.617326 -0.262277,0.651395 -0.289209,0.57396 -0.365866,0.596004 -0.217274,0.305857 -0.296148,0.373162 -0.247492,0.279955 -0.382965,0.386159 -0.373384,0.330417 -0.508071,0.388877 -0.328998,0.219606 -0.457044,0.26824 -0.347983,0.178154 -0.584871,0.253424 -0.500367,0.174686 -0.677158,0.179369 -0.606764,0.108269 -0.577556,0.05895 -0.522668,0.0171 H 8.0039062 0 Z"
     id="path42" />
  <path
     style="display:none;fill:#1a1a1a;fill-opacity:0.545616"
     d="M 8.0039062,16.002134 H 0 L 0.02221324,15.159886 0.06148306,14.601473 0.12748763,13.987109 0.22403624,13.334849 0.35762516,12.639158 0.53643232,11.894926 0.79447423,11.024204 1.1275647,10.10345 1.3998902,9.458627 1.9196679,8.4048145 2.3481634,7.6595966 2.9624194,6.7292692 3.4503974,6.0790573 3.9650129,5.4610486 4.7531843,4.6241754 5.4515224,3.9741251 6.174844,3.3765863 7.1830745,2.6532264 7.9501015,2.1772978 8.7919597,1.720446 9.805772,1.2525833 10.539353,0.96564318 11.688385,0.59691432 12.667736,0.35591317 13.948898,0.13711601 14.820444,0.04865516 15.632309,0.00934791 16.09375,0.005124 H 31.999144 L 32,8.015625 H 8.0039062 Z"
     id="path43" />
  <path
     style="display:none;fill:#ffffff;fill-opacity:1;stroke-width:0.0441942"
     d="m 0,20.019961 v -3.977476 h 3.9995727 3.9995727 v 3.977476 3.977475 H 3.9995727 0 Z"
     id="path49" />
  <path
     style="display:none;fill:#ffffff;fill-opacity:1;stroke-width:0.0441942"
     d="M 24.021625,15.633689 C 23.939618,14.609909 23.767286,13.825445 23.45176,13.039632 22.737474,11.260718 21.435167,9.8145054 19.754147,8.9334312 18.958915,8.5166263 18.23507,8.2658743 17.390407,8.1145935 c -0.313664,-0.056178 0.490345,-0.06377 7.126311,-0.067288 l 7.479864,-0.00397 v 3.9774755 3.977476 H 28.023706 24.05083 Z"
     id="path50" />
  <path
     style="display:inline;fill:#000000;fill-opacity:1;stroke-width:0.0625"
     d="M 0,28.035369 V 24.0625 l 8.265625,-3.69e-4 c 9.082606,-4.04e-4 8.886816,0.007 10.137772,-0.380842 2.856276,-0.885437 4.948903,-3.257785 5.4999,-6.235068 0.05319,-0.287391 0.09709,-0.653016 0.09756,-0.8125 4.69e-4,-0.159484 0.01781,-0.353252 0.03854,-0.430596 l 0.03769,-0.140625 h 3.93021 3.930211 l -5.43e-4,0.515625 c -5.54e-4,0.525883 -0.12551,1.715246 -0.251162,2.390625 -0.208364,1.119953 -0.715078,2.678585 -1.231314,3.787472 -2.078321,4.464286 -6.186414,7.75671 -11.016981,8.829539 -1.723343,0.382741 -1.36599,0.369595 -10.796875,0.397192 L 0,32.008238 Z"
     id="path47" />
  <path
     style="display:inline;fill:#000000;fill-opacity:1;stroke-width:0.0625"
     d="M 0.07156039,15.109414 C 0.19439704,12.39532 1.132416,9.5669281 2.6791485,7.2468 3.4083257,6.1530207 3.7845084,5.6892331 4.6659558,4.7973083 5.4966179,3.9567724 5.9396636,3.5828919 6.9040362,2.9086215 8.8714819,1.5330221 10.802122,0.7490795 13.478104,0.23920084 L 14.21875,0.09807894 23.109375,0.07844843 32,0.05881792 V 4.0294089 8 H 20 8 v 4 4 l -3.984375,3.9e-5 -3.984375,3.9e-5 z"
     id="path48" />
  <path
     style="display:inline;fill:#009cff;fill-opacity:1;stroke-width:0.0883883"
     d="M 8.0433396,15.992621 V 8.0320006 l 4.6182914,0.034791 c 4.983834,0.037545 4.831528,0.024284 6.249238,0.5441244 2.152759,0.7893663 4.021631,2.848902 4.742397,5.226222 0.212588,0.701183 0.240765,0.941878 0.247821,2.116959 0.0067,1.107766 -0.02392,1.442123 -0.185892,2.032932 -0.842371,3.072667 -3.28086,5.331298 -6.341021,5.873319 -0.31996,0.05667 -2.241413,0.09289 -4.92765,0.09289 H 8.0433396 Z"
     id="path52" />
</svg>
